<svg width="133" height="70" viewBox="0 0 133 70" fill="none" xmlns="http://www.w3.org/2000/svg">
<g clip-path="url(#clip0_21_546)">
<path d="M0 11.4999L133 0V70L0 60.4999V11.4999Z" fill="#2D3192"/>
<path d="M8.647 47V24.984H24.071V29.272H14.215V33.784H22.567V38.008H14.215V42.712H24.071V47H8.647ZM30.8128 47L25.8848 30.68H31.1328L34.1728 42.424H34.4928L37.4368 30.68H42.6208L37.7248 47H30.8128ZM52.35 47.256C50.814 47.256 49.5447 47.16 48.542 46.968C47.5393 46.776 46.7393 46.4773 46.142 46.072C45.566 45.6453 45.1287 45.1013 44.83 44.44C44.5527 43.7787 44.3713 42.9893 44.286 42.072C44.222 41.1547 44.19 40.088 44.19 38.872C44.19 37.4 44.254 36.1307 44.382 35.064C44.5313 33.9973 44.8513 33.1227 45.342 32.44C45.8327 31.7573 46.59 31.256 47.614 30.936C48.6593 30.5947 50.0673 30.424 51.838 30.424C53.2673 30.424 54.43 30.5307 55.326 30.744C56.222 30.936 56.926 31.2453 57.438 31.672C57.9713 32.0773 58.3447 32.6107 58.558 33.272C58.7927 33.9333 58.942 34.7333 59.006 35.672C59.07 36.5893 59.102 37.656 59.102 38.872V40.12H49.278C49.278 40.8453 49.31 41.432 49.374 41.88C49.438 42.3067 49.6087 42.6267 49.886 42.84C50.1633 43.0533 50.59 43.2027 51.166 43.288C51.742 43.352 52.542 43.384 53.566 43.384C53.9713 43.384 54.4513 43.3733 55.006 43.352C55.5607 43.3307 56.1367 43.2987 56.734 43.256C57.3527 43.2133 57.9287 43.1707 58.462 43.128V46.712C57.9927 46.8187 57.4167 46.9147 56.734 47C56.0727 47.0853 55.358 47.1493 54.59 47.192C53.822 47.2347 53.0753 47.256 52.35 47.256ZM54.27 37.976V37.464C54.27 36.696 54.2273 36.088 54.142 35.64C54.078 35.192 53.95 34.8613 53.758 34.648C53.5873 34.4133 53.342 34.264 53.022 34.2C52.702 34.136 52.2967 34.104 51.806 34.104C51.2513 34.104 50.8033 34.1467 50.462 34.232C50.142 34.296 49.8967 34.4453 49.726 34.68C49.5553 34.9147 49.438 35.256 49.374 35.704C49.31 36.152 49.278 36.7387 49.278 37.464H54.814L54.27 37.976ZM62.5465 47V30.68H67.4105L67.5385 32.664H67.8265C68.1465 32.1093 68.5412 31.672 69.0105 31.352C69.4798 31.0107 70.0132 30.776 70.6105 30.648C71.2078 30.4987 71.8585 30.424 72.5625 30.424C73.6505 30.424 74.5145 30.5627 75.1545 30.84C75.8158 31.1173 76.3172 31.5227 76.6585 32.056C76.9998 32.5893 77.2238 33.2507 77.3305 34.04C77.4585 34.8293 77.5225 35.7467 77.5225 36.792V47H72.3705V38.36C72.3705 37.4853 72.3492 36.8027 72.3065 36.312C72.2638 35.8 72.1678 35.4267 72.0185 35.192C71.8692 34.9573 71.6345 34.8187 71.3145 34.776C71.0158 34.712 70.6105 34.68 70.0985 34.68C69.5652 34.68 69.1278 34.744 68.7865 34.872C68.4665 34.9787 68.2212 35.1707 68.0505 35.448C67.9012 35.7253 67.7945 36.12 67.7305 36.632C67.6878 37.1227 67.6665 37.7413 67.6665 38.488V47H62.5465ZM86.0608 47V29.464H80.0448V24.984H97.6768V29.464H91.6288V47H86.0608ZM105.288 47.256C103.752 47.256 102.482 47.16 101.48 46.968C100.477 46.776 99.6768 46.4773 99.0795 46.072C98.5035 45.6453 98.0662 45.1013 97.7675 44.44C97.4902 43.7787 97.3088 42.9893 97.2235 42.072C97.1595 41.1547 97.1275 40.088 97.1275 38.872C97.1275 37.4 97.1915 36.1307 97.3195 35.064C97.4688 33.9973 97.7888 33.1227 98.2795 32.44C98.7702 31.7573 99.5275 31.256 100.552 30.936C101.597 30.5947 103.005 30.424 104.776 30.424C106.205 30.424 107.368 30.5307 108.264 30.744C109.16 30.936 109.864 31.2453 110.376 31.672C110.909 32.0773 111.282 32.6107 111.496 33.272C111.73 33.9333 111.88 34.7333 111.944 35.672C112.008 36.5893 112.04 37.656 112.04 38.872V40.12H102.216C102.216 40.8453 102.248 41.432 102.312 41.88C102.376 42.3067 102.546 42.6267 102.824 42.84C103.101 43.0533 103.528 43.2027 104.104 43.288C104.68 43.352 105.48 43.384 106.504 43.384C106.909 43.384 107.389 43.3733 107.944 43.352C108.498 43.3307 109.074 43.2987 109.672 43.256C110.29 43.2133 110.866 43.1707 111.4 43.128V46.712C110.93 46.8187 110.354 46.9147 109.672 47C109.01 47.0853 108.296 47.1493 107.528 47.192C106.76 47.2347 106.013 47.256 105.288 47.256ZM107.208 37.976V37.464C107.208 36.696 107.165 36.088 107.08 35.64C107.016 35.192 106.888 34.8613 106.696 34.648C106.525 34.4133 106.28 34.264 105.96 34.2C105.64 34.136 105.234 34.104 104.744 34.104C104.189 34.104 103.741 34.1467 103.4 34.232C103.08 34.296 102.834 34.4453 102.664 34.68C102.493 34.9147 102.376 35.256 102.312 35.704C102.248 36.152 102.216 36.7387 102.216 37.464H107.752L107.208 37.976ZM115.484 47V30.68H120.348L120.476 33.464H120.764C121.063 32.6747 121.436 32.056 121.884 31.608C122.353 31.16 122.919 30.8507 123.58 30.68C124.241 30.5093 125.009 30.424 125.884 30.424V35.128C124.54 35.128 123.484 35.2987 122.716 35.64C121.948 35.9813 121.404 36.568 121.084 37.4C120.764 38.2107 120.604 39.352 120.604 40.824V47H115.484Z" fill="white"/>
</g>
<defs>
<clipPath id="clip0_21_546">
<rect width="133" height="70" fill="white"/>
</clipPath>
</defs>
</svg>
